<?xml version="1.0" encoding="UTF-8"?>
<!DOCTYPE svg PUBLIC "-//W3C//DTD SVG 1.1//EN" "http://www.w3.org/Graphics/SVG/1.1/DTD/svg11.dtd">
<svg xmlns="http://www.w3.org/2000/svg" version="1.1" width="736px" height="736px" style="shape-rendering:geometricPrecision; text-rendering:geometricPrecision; image-rendering:optimizeQuality; fill-rule:evenodd; clip-rule:evenodd" xmlns:xlink="http://www.w3.org/1999/xlink">
<g><path style="opacity:0.973" fill="#0d5ad9" d="M 439.5,-0.5 C 452.167,-0.5 464.833,-0.5 477.5,-0.5C 539.682,10.1621 584.182,44.1621 611,101.5C 628.808,143.842 636.974,188.008 635.5,234C 639.028,337.608 598.695,418.942 514.5,478C 496.841,490.165 478.841,501.832 460.5,513C 455.626,517.776 452.959,523.609 452.5,530.5C 453.24,537.795 455.074,544.795 458,551.5C 466.681,566.865 475.347,582.199 484,597.5C 484.568,606.103 480.402,610.436 471.5,610.5C 462.401,609.449 454.401,605.949 447.5,600C 423.047,580.554 404.214,556.721 391,528.5C 390.085,522.909 391.419,517.909 395,513.5C 397.869,510.296 401.035,507.463 404.5,505C 441.248,484.3 475.915,460.633 508.5,434C 556.278,391.752 582.112,338.585 586,274.5C 589.227,236.264 587.56,198.264 581,160.5C 572.999,131.257 554.166,119.423 524.5,125C 505.783,131.722 491.283,143.556 481,160.5C 475.922,168.657 471.922,177.324 469,186.5C 462.667,193.167 456.333,193.167 450,186.5C 440.217,163.051 424.383,144.884 402.5,132C 388.677,125.103 374.343,123.769 359.5,128C 345.351,134.149 336.185,144.649 332,159.5C 326.991,186.933 324.324,214.599 324,242.5C 323.275,244.949 322.275,247.283 321,249.5C 268.333,334.167 215.667,418.833 163,503.5C 162.318,507.18 163.818,509.68 167.5,511C 212.348,516.026 254.681,508.026 294.5,487C 339.559,458.907 369.059,419.074 383,367.5C 391.234,337.392 395.234,306.725 395,275.5C 399.036,267.282 405.203,265.116 413.5,269C 415.049,270.214 416.215,271.714 417,273.5C 427.851,311.228 430.851,349.561 426,388.5C 414.115,456.136 376.615,503.303 313.5,530C 258.112,550.382 201.445,554.715 143.5,543C 131.618,540.78 119.951,537.78 108.5,534C 100.718,527.194 99.5513,519.361 105,510.5C 147.246,438.326 191.246,367.326 237,297.5C 249.839,276.494 262.172,255.16 274,233.5C 275,230.833 276,228.167 277,225.5C 276.979,186.29 283.646,148.29 297,111.5C 323.247,46.9775 370.747,9.64415 439.5,-0.5 Z M 549.5,81.5 C 518.423,76.1315 493.257,85.7982 474,110.5C 467.504,119.667 461.837,129.334 457,139.5C 442.233,113.535 420.733,95.7021 392.5,86C 382.948,84.0229 373.281,83.0229 363.5,83C 395.804,40.4521 438.137,24.7854 490.5,36C 515.588,44.2682 535.255,59.4349 549.5,81.5 Z"/></g>
<g><path style="opacity:0.972" fill="#0d5ad9" d="M 337.5,735.5 C 328.833,735.5 320.167,735.5 311.5,735.5C 265.917,724.062 243.417,694.729 244,647.5C 249.716,609.45 271.216,585.617 308.5,576C 344.437,570.56 372.604,582.726 393,612.5C 396.252,618.503 399.086,624.669 401.5,631C 449.159,630.455 496.826,630.455 544.5,631C 556.828,633.994 563.328,641.828 564,654.5C 564.759,674.167 565.093,693.834 565,713.5C 564.05,722.458 559.217,725.958 550.5,724C 548.667,722.833 546.833,721.667 545,720.5C 537.241,708.654 530.241,696.321 524,683.5C 521.455,679.954 518.288,677.121 514.5,675C 507.298,673.138 499.965,672.138 492.5,672C 462.835,671.5 433.169,671.333 403.5,671.5C 394.94,706.727 372.94,728.061 337.5,735.5 Z M 317.5,607.5 C 334.054,605.525 345.554,612.192 352,627.5C 357.973,645.839 357.973,664.173 352,682.5C 345.154,698.008 333.321,704.175 316.5,701C 306.359,697.526 299.526,690.693 296,680.5C 289.064,658.925 291.064,638.258 302,618.5C 306.162,613.19 311.329,609.524 317.5,607.5 Z"/></g>
</svg>
